<svg width="190" height="320" xmlns="http://www.w3.org/2000/svg">
 <!-- Created with Method Draw - http://github.com/duopixel/Method-Draw/ -->
 <g>
  <title>background</title>
  <rect fill="none" id="canvas_background" height="322" width="192" y="-1" x="-1"/>
  <g display="none" overflow="visible" y="0" x="0" height="100%" width="100%" id="canvasGrid">
   <rect fill="url(#gridpattern)" stroke-width="0" y="0" x="0" height="100%" width="100%"/>
  </g>
 </g>
 <g>
  <title>Layer 1</title>
  <ellipse stroke="#786452" ry="68" rx="94.18287" id="svg_2" cy="68.75" cx="94.93288" stroke-width="1.5" fill="#786452"/>
  <rect id="svg_1" height="250" width="188" y="68.75" x="0.93288" stroke-width="1.5" stroke="#786452" fill="#786452"/>
  <rect opacity="0.8" stroke="#443730" id="svg_3" height="110" width="55.39625" y="183.14068" x="30.93288" stroke-width="6" fill="#786452"/>
  <rect opacity="0.8" stroke="#443730" id="svg_4" height="110" width="55" y="183.14068" x="106.93288" stroke-width="6" fill="#786452"/>
  <rect opacity="0.8" stroke="#443730" id="svg_5" height="100" width="55.39625" y="63.715" x="30.93288" stroke-width="6" fill="#786452"/>
  <rect opacity="0.8" stroke="#443730" id="svg_6" height="100" width="55.39625" y="63.75" x="106.93288" stroke-width="6" fill="#786452"/>
  <ellipse stroke="#c6af27" ry="6" rx="6" id="svg_7" cy="173.42836" cx="14.87656" stroke-width="4" fill="#e2c938"/>
  <ellipse stroke="#c6af27" ry="6" rx="5" id="svg_9" cy="39.63998" cx="96.77896" stroke-width="3" fill="#c6af27"/>
  <ellipse stroke="#c6af27" ry="5" rx="5" id="svg_10" cy="41.63998" cx="92.28093" stroke-width="3" fill="#c6af27"/>
  <ellipse stroke="#c6af27" ry="5" rx="5" id="svg_11" cy="41.63998" cx="101.23944" stroke-width="3" fill="#c6af27"/>
  <ellipse ry="2" rx="1.5" id="svg_12" cy="25.09578" cx="101.28055" stroke-width="3" stroke="#c6af27" fill="#c6af27"/>
  <ellipse ry="2" rx="1.5" id="svg_13" cy="25.51222" cx="92.0776" stroke-width="3" stroke="#c6af27" fill="#c6af27"/>
  <ellipse ry="2" rx="2" id="svg_14" cy="32.50339" cx="109.18646" stroke-width="3" stroke="#c6af27" fill="#c6af27"/>
  <ellipse ry="2" rx="1.5" id="svg_15" cy="31.86358" cx="84.19747" stroke-width="3" stroke="#c6af27" fill="#c6af27"/>
 </g>
</svg>